<svg width="112" height="110" viewBox="0 0 112 110" fill="#FF1A24" xmlns="http://www.w3.org/2000/svg">
<g filter="url(#filter0_d_163_4)">
<path d="M104.5 79.03L94.6 81.11C93.06 81.43 92 82.86 92.14 84.43L93.01 94.51C93.19 96.64 91.23 98.32 89.16 97.8L79.33 95.38C77.8 95 76.23 95.83 75.67 97.3L72.08 106.76C71.32 108.76 68.83 109.42 67.18 108.06L59.38 101.61C58.17 100.61 56.39 100.67 55.25 101.75L47.91 108.72C46.36 110.19 43.83 109.7 42.93 107.76L38.7 98.57C38.04 97.14 36.42 96.42 34.92 96.91L25.28 100C23.25 100.65 21.17 99.11 21.21 96.98L21.39 86.86C21.42 85.28 20.26 83.94 18.7 83.72L8.67999 82.33C6.55999 82.04 5.36999 79.75 6.32999 77.84L10.88 68.8C11.59 67.39 11.13 65.68 9.81999 64.8L1.38999 59.19C-0.390011 58.01 -0.480011 55.43 1.21999 54.13L9.23999 47.96C10.49 47 10.82 45.26 10.02 43.9L4.85999 35.19C3.76999 33.35 4.80999 30.99 6.89999 30.55L16.8 28.47C18.34 28.15 19.4 26.72 19.26 25.15L18.39 15.07C18.21 12.94 20.17 11.26 22.24 11.78L32.07 14.2C33.6 14.58 35.17 13.75 35.73 12.28L39.32 2.81998C40.08 0.819983 42.57 0.159983 44.22 1.51998L52.02 7.96998C53.23 8.96998 55.01 8.90998 56.15 7.82998L63.49 0.859983C65.04 -0.610017 67.57 -0.120017 68.47 1.81998L72.7 11.01C73.36 12.44 74.98 13.16 76.48 12.67L86.12 9.57998C88.15 8.92998 90.23 10.47 90.19 12.6L90.01 22.72C89.98 24.3 91.14 25.64 92.7 25.86L102.72 27.25C104.84 27.54 106.03 29.83 105.07 31.74L100.52 40.78C99.81 42.19 100.27 43.9 101.58 44.78L110.01 50.39C111.79 51.57 111.88 54.15 110.18 55.45L102.16 61.62C100.91 62.58 100.58 64.32 101.38 65.68L106.54 74.39C107.63 76.23 106.59 78.59 104.5 79.03Z"/>
</g>
<defs>
<filter id="filter0_d_163_4" x="-4.00183" y="0.00402832" width="119.404" height="117.572" filterUnits="userSpaceOnUse" color-interpolation-filters="sRGB">
<feFlood flood-opacity="0" result="BackgroundImageFix"/>
<feColorMatrix in="SourceAlpha" type="matrix" values="0 0 0 0 0 0 0 0 0 0 0 0 0 0 0 0 0 0 127 0" result="hardAlpha"/>
<feOffset dy="4"/>
<feGaussianBlur stdDeviation="2"/>
<feComposite in2="hardAlpha" operator="out"/>
<feColorMatrix type="matrix" values="0 0 0 0 0 0 0 0 0 0 0 0 0 0 0 0 0 0 0.25 0"/>
<feBlend mode="normal" in2="BackgroundImageFix" result="effect1_dropShadow_163_4"/>
<feBlend mode="normal" in="SourceGraphic" in2="effect1_dropShadow_163_4" result="shape"/>
</filter>
</defs>
</svg>
